<?xml version="1.0" encoding="utf-8"?>
<!-- Generator: Adobe Illustrator 23.0.0, SVG Export Plug-In . SVG Version: 6.00 Build 0)  -->
<svg version="1.1" id="Layer_1" xmlns="http://www.w3.org/2000/svg" xmlns:xlink="http://www.w3.org/1999/xlink" x="0px" y="0px"
	 viewBox="0 0 150 32" style="enable-background:new 0 0 150 32;" xml:space="preserve">
<style type="text/css">
	.st0{fill:#FFFFFF;}
</style>
<g>
	<g>
		<g>
			<path class="st0" d="M7.3,30.4c-0.8,0.6-1.8,1-3.1,1c-0.9,0-1.7-0.1-2.4-0.4S0.6,30.4,0,29.8l1.5-1.5c0.3,0.4,0.8,0.6,1.2,0.8
				s1,0.2,1.6,0.2c1.4,0,2-0.5,2-1.5c0-0.4-0.1-0.7-0.3-1s-0.6-0.4-1.1-0.5l-0.7-0.1l-0.8-0.1c-1-0.1-1.7-0.5-2.2-1
				c-0.5-0.6-0.8-1.3-0.8-2.3c0-1.1,0.4-2,1.1-2.6c0.7-0.7,1.7-1,2.9-1c0.8,0,1.5,0.1,2.1,0.3s1.1,0.6,1.6,1.1l-1.4,1.5
				c-0.3-0.3-0.7-0.5-1.1-0.7c-0.4-0.1-0.8-0.2-1.3-0.2c-0.6,0-1,0.1-1.3,0.4c-0.3,0.3-0.5,0.6-0.5,1.1c0,0.3,0.1,0.6,0.4,0.8
				s0.6,0.4,1,0.5l0.7,0.1l0.7,0.1c0.5,0.1,1,0.2,1.3,0.3c0.3,0.1,0.7,0.3,0.9,0.6c0.6,0.6,0.9,1.4,0.9,2.5
				C8.5,28.9,8.1,29.8,7.3,30.4z"/>
			<path class="st0" d="M16.6,21.4v9.8h-2.3v-9.8h-3v-2.1h8.3v2.1H16.6z"/>
			<path class="st0" d="M23.1,31.3V19.3h7.6v2.1h-5.3v2.8h4.5v2.1h-4.5v2.9h5.3v2.1H23.1z"/>
			<path class="st0" d="M41.1,31.3l-0.7-2.1h-4.1l-0.7,2.1h-2.3l4.2-11.9h1.8l4.2,11.9H41.1z M38.4,22.8l-1.5,4.3h2.9L38.4,22.8z"/>
			<path class="st0" d="M54.7,31.3v-6.9l-2.2,4.5h-1.5l-2.2-4.5v6.9h-2.3V19.3h2.2l3,6.4l3-6.4h2.2v11.9H54.7z"/>
			<path class="st0" d="M70.3,31.3h-0.9l-2.7-10.4L64,31.3h-0.9l-2.9-11.9h0.9l2.4,10.4l2.7-10.4h0.9l2.7,10.4l2.4-10.4h0.9
				L70.3,31.3z"/>
			<path class="st0" d="M83.8,27.2c0,0.4-0.1,0.8-0.1,1.2c-0.1,0.3-0.2,0.7-0.3,1c-0.1,0.3-0.3,0.6-0.6,0.8
				c-0.4,0.4-0.8,0.7-1.3,0.9c-0.5,0.2-1,0.3-1.6,0.3s-1.1-0.1-1.6-0.3c-0.5-0.2-0.9-0.5-1.3-0.9c-0.3-0.3-0.5-0.5-0.6-0.8
				c-0.1-0.3-0.3-0.6-0.3-1C76,28,76,27.6,76,27.2c0-0.4,0-1.1,0-1.9c0-0.8,0-1.4,0-1.9c0-0.4,0.1-0.8,0.1-1.2
				c0.1-0.3,0.2-0.7,0.3-1c0.1-0.3,0.3-0.6,0.6-0.8c0.4-0.4,0.8-0.7,1.3-0.9c0.5-0.2,1-0.3,1.6-0.3s1.1,0.1,1.6,0.3
				c0.5,0.2,0.9,0.5,1.3,0.9c0.3,0.3,0.5,0.5,0.6,0.8c0.1,0.3,0.3,0.6,0.3,1c0.1,0.3,0.1,0.7,0.1,1.2c0,0.4,0,1.1,0,1.9
				C83.8,26.1,83.8,26.7,83.8,27.2z M82.9,23.6c0-0.4,0-0.8-0.1-1.1s-0.1-0.6-0.3-0.8s-0.3-0.5-0.5-0.7c-0.6-0.6-1.3-0.9-2.2-0.9
				s-1.6,0.3-2.2,0.9c-0.2,0.2-0.4,0.4-0.5,0.7s-0.2,0.5-0.3,0.8s-0.1,0.7-0.1,1.1s0,1,0,1.7c0,0.7,0,1.3,0,1.7c0,0.4,0,0.8,0.1,1.1
				c0.1,0.3,0.2,0.6,0.3,0.8c0.1,0.2,0.3,0.5,0.5,0.7c0.6,0.6,1.3,0.9,2.2,0.9s1.6-0.3,2.2-0.9c0.2-0.2,0.4-0.4,0.5-0.7
				s0.2-0.5,0.3-0.8s0.1-0.7,0.1-1.1c0-0.4,0-1,0-1.7C82.9,24.6,82.9,24,82.9,23.6z"/>
			<path class="st0" d="M94.8,31.3l-2.7-5.5h-3.2v5.5H88V19.3h4.4c1,0,1.8,0.3,2.4,0.8c0.6,0.6,0.9,1.3,0.9,2.3
				c0,0.9-0.2,1.6-0.7,2.2c-0.5,0.6-1.1,0.9-2,1.1l2.8,5.5H94.8z M94.2,20.8c-0.5-0.4-1.1-0.6-1.8-0.6h-3.4V25h3.4
				c0.8,0,1.4-0.2,1.8-0.6c0.5-0.4,0.7-1,0.7-1.8C94.9,21.8,94.6,21.2,94.2,20.8z"/>
			<path class="st0" d="M107.4,31.3l-3.7-6.7L101,28v3.2h-0.9V19.3h0.9v7.5l5.8-7.5h1l-3.6,4.5l4.2,7.4L107.4,31.3L107.4,31.3z"/>
			<path class="st0" d="M117.7,30.5c-0.7,0.6-1.6,0.9-2.8,0.9c-0.8,0-1.6-0.1-2.1-0.4c-0.6-0.3-1.2-0.6-1.7-1.2l0.6-0.6
				c0.5,0.5,1,0.9,1.5,1.1c0.5,0.2,1.1,0.3,1.8,0.3c0.9,0,1.6-0.2,2.2-0.7c0.5-0.4,0.8-1,0.8-1.8c0-0.7-0.2-1.3-0.6-1.7
				c-0.2-0.2-0.4-0.3-0.6-0.4c-0.2-0.1-0.6-0.2-1-0.2l-0.7-0.1l-0.6-0.1c-0.9-0.1-1.6-0.4-2.1-0.9c-0.6-0.5-0.9-1.3-0.9-2.2
				c0-1,0.3-1.8,1-2.4c0.7-0.6,1.5-0.9,2.6-0.9c0.7,0,1.3,0.1,1.8,0.3c0.5,0.2,1,0.5,1.5,1l-0.6,0.6c-0.4-0.4-0.8-0.6-1.2-0.8
				c-0.4-0.2-0.9-0.3-1.6-0.3c-0.8,0-1.5,0.2-2,0.7s-0.7,1-0.7,1.8c0,0.7,0.2,1.2,0.6,1.6c0.2,0.2,0.5,0.3,0.8,0.5
				c0.3,0.1,0.6,0.2,1,0.3l0.5,0.1l0.7,0.1c0.5,0.1,1,0.2,1.3,0.3c0.3,0.1,0.6,0.3,0.8,0.5c0.3,0.3,0.6,0.6,0.8,1
				c0.2,0.4,0.3,0.8,0.3,1.3C118.7,29.1,118.4,29.9,117.7,30.5z"/>
		</g>
	</g>
	<g>
		<rect x="137" class="st0" width="13" height="13"/>
		<rect x="127.7" y="12.9" class="st0" width="9.4" height="9.4"/>
		<rect x="100.1" y="3.1" class="st0" width="6.7" height="6.7"/>
	</g>
	<g>
		<path class="st0" d="M119.5,19.7v1h-0.2v-1H119v-0.2h0.8v0.2C119.8,19.7,119.5,19.7,119.5,19.7z"/>
		<path class="st0" d="M120.9,20.7v-0.8l-0.3,0.6h-0.1l-0.3-0.6v0.8H120v-1.2h0.2l0.3,0.7l0.3-0.7h0.2v1.2H120.9z"/>
	</g>
</g>
</svg>
